/* XPM */
static char *_f1c526a13dd4a27a997f186b407babdacWn4sWPr46GM2Tz[] = {
/* columns rows colors chars-per-pixel */
"64 64 158 2 ",
"   c #35312E",
".  c #3D3B2F",
"X  c #363435",
"o  c #3A3632",
"O  c #3D3B35",
"+  c #3E3C39",
"@  c #403C36",
"#  c #413C39",
"$  c #474537",
"%  c #46423B",
"&  c #4A463B",
"*  c #4E4A3C",
"=  c #524C3E",
"-  c #4E4741",
";  c #4F4C42",
":  c #524E44",
">  c #524F48",
",  c #565245",
"<  c #5A5546",
"1  c #5D5847",
"2  c #55524A",
"3  c #59564A",
"4  c #5D5A4C",
"5  c #595750",
"6  c #5D5B51",
"7  c #625D4D",
"8  c #625E51",
"9  c #64614E",
"0  c #6D624D",
"q  c #72654D",
"w  c #656252",
"e  c #6B6554",
"r  c #6E6956",
"t  c #666258",
"y  c #6C6659",
"u  c #6E6959",
"i  c #716652",
"p  c #716956",
"a  c #716957",
"s  c #726A56",
"d  c #706759",
"f  c #726B59",
"g  c #746B5A",
"h  c #716C59",
"j  c #736D5A",
"k  c #71695D",
"l  c #746B5F",
"z  c #736D5D",
"x  c #766E5D",
"c  c #6F705E",
"v  c #77715E",
"b  c #78715D",
"n  c #6C6E65",
"m  c #726E61",
"M  c #6F7065",
"N  c #67726F",
"B  c #6E746E",
"V  c #757364",
"C  c #757265",
"Z  c #787365",
"A  c #7D7966",
"S  c #74746A",
"D  c #797569",
"F  c #7E796A",
"G  c #7E7D6C",
"H  c #62757A",
"J  c #6C7A7B",
"K  c #777E79",
"L  c #817E6B",
"P  c #827E6D",
"I  c #827E6E",
"U  c #837F71",
"Y  c #77807C",
"T  c #82816D",
"R  c #85816E",
"E  c #88846E",
"W  c #858371",
"Q  c #868173",
"!  c #8D8A76",
"~  c #848479",
"^  c #5B7584",
"/  c #5C7887",
"(  c #567C95",
")  c #5C829A",
"_  c #7A8A8C",
"`  c #688798",
"'  c #698798",
"]  c #4A83AD",
"[  c #4286BD",
"{  c #4388BF",
"}  c #4888BA",
"|  c #678CA3",
" . c #7D97A3",
".. c #7E99A7",
"X. c #7F9AA8",
"o. c #6494B5",
"O. c #3F8AC7",
"+. c #3F8BC8",
"@. c #4087C0",
"#. c #4189C1",
"$. c #4E91C5",
"%. c #5298CD",
"&. c #539BD4",
"*. c #589ED4",
"=. c #639CC6",
"-. c #5AA0D5",
";. c #57A0D9",
":. c #5BA2DA",
">. c #6DA3C9",
",. c #60A1D1",
"<. c #6BA7D4",
"1. c #5BA6E2",
"2. c #5DAAE6",
"3. c #5CACEB",
"4. c #5CAFF0",
"5. c #5BB1F6",
"6. c #57B1F8",
"7. c #5AB4FC",
"8. c #64ACE3",
"9. c #6BAFE2",
"0. c #6FB8EF",
"q. c #73B3E4",
"w. c #7DB9E5",
"e. c #7FBDE9",
"r. c #66B3F0",
"t. c #888C87",
"y. c #8B9DA4",
"u. c #97A3A6",
"i. c #9AA6A9",
"p. c #81A2B4",
"a. c #83A6BA",
"s. c #83ACC6",
"d. c #84AEC9",
"f. c #9FBBCA",
"g. c #87B7D8",
"h. c #8ABBDD",
"j. c #A6BBC6",
"k. c #83BDE7",
"l. c #81BDE8",
"z. c #85C1EC",
"x. c #8AC3EB",
"c. c #95C6E9",
"v. c #8AC7F2",
"b. c #8BC9F6",
"n. c #8DCCFA",
"m. c #99CEF4",
"M. c #8DD1FF",
"N. c #90D1FF",
"B. c #AECEE5",
"V. c #A5CDE9",
"C. c #B3CEE0",
"Z. c #AED0E8",
"A. c #B3D4EC",
"S. c #BAD9EE",
"D. c #BDDDF3",
"F. c #BFE0F8",
"G. c #C3E1F7",
"H. c #C2E4FD",
/* pixels */
"! G L W I R E E Z ; O 1 A W T T U I U m : 7 L U L I L e 8 G S 2 C Y K Y T T L A C * O 1 A W T T I I W m : 1 I U I E A e t G M $ ",
"T r w w u x b r w 1 < 7 w w 9 w 7 7 y r , 7 d e e w 9 1 3 8 8 3 9 w w 9 w 9 0 e t 3 , 7 w w 7 w 8 8 y r 3 7 e 8 e 9 7 3 4 8 7 O ",
"L 9 4 w e r a e r r u u e 7 4 4 7 7 w e 8 a e 7 w t 9 4 3 3 2 8 1 < 4 4 9 9 e e r y d y e 8 1 4 7 7 w r e e s 7 w 7 7 7 4 3 2 O ",
"R e w g s e r f f u h h k k u u e u r s g x a 7 w u u w 8 6 1 2 4 7 w y u h c h f f f f u z k u e e a a g g r 9 w e u e 4 5 2 @ ",
"L e e h s f a a s s f f d d k m f u e e x f 9 7 4 4 t k t 7 8 7 w u u h v h r r s s r s d d k m a f e e f f 7 7 3 w r e 8 4 2 + ",
"7 7 f s s v m f g s y g g d d g f s r f f f e e w 4 e m u e k y z z k f r s s s g f s f g y f f d a f f z f s w 4 9 e h e 6 2 + ",
", 8 g e r b s f f y r f f s s s s f u f f e f h r u f f u m g f u s s r s s f g f y e f g g r s a f f f s e f z u r r h e 4 : + ",
"Z x s i s s e f f f f f s u s r f u s f g f f u r v f e k f r s r f h u f s s s f k f f s s f h s a e f f f f f z u r r e w , O ",
"Q k u k u f d m f f f u f f u f f u f f f f u f f f f u f u f u h f f f f f f u f f f f f u f f f s h u f h f s u e 6 9 e t 2 + ",
"W u e f f d g f u f f f f f f f f f f f f u f f f u f f f f f f f f f u f u f f f u f f f f f u u g h s f u f h r e 6 4 4 9 2 + ",
"U e r d k f d d f f u d f f u s h f f f f f f f f f f f f f f f h u f f f f f f f f f u u f f f f f u h f f h h r u w , , 5 2 + ",
"I w 8 u f f f d f f f f f f f f u f f f f f f u f f f u f f f f f f f f f f f f f f f f h f f f f f f f f f h s r r y 4 4 9 2 + ",
"I w 7 e u f k g f u f f f f f f f f f f f h h k f f f f f h f f h f h f f f f f f f f f f f f f f f f f h s s h h u u u u w 3 + ",
"T 9 1 e f g k g f f f f f u f f f f u f f f h f u h f f f f f f f f h k f f f f h u f f f f f u u f u f s s h s h u u c c u 3 + ",
"W 7 4 e k h f f f f f u f f u f f f h k f f f f f h f k h h f f f f f f f f f h f h f f f h f f f h f f h h s r h h e w 9 y 3 + ",
"I 7 1 f h k d y f u f f s u f f f h f f f f f f f f h h k f f f f f h f h f k h k h h f f u f f f s u f r h s h s h w 9 = 9 ; + ",
"I 9 4 r f r s f g a f s i f k f f f f f f f f f h h f h h g f f f f h g f f f g f f f f f f f u s f f u f f f y u s f e 1 : % o ",
"U 8 7 f k s f f e 7 e r e r f k u f u f f u z z h h g h h z f z z h z h z f z h u f u f u f f f r f f s e a f f u r f s e 7 : @ ",
"S 1 , 8 u u e 7 * - 7 7 7 7 s f f f f f f h e 0 0 0 0 0 q 9 0 7 q 0 9 0 q q q q q r f f f f f u u f f f s a g r e e f s y e , O ",
": & @ & 8 8 & % - 3 r u e i f h f u f f z 0 t.i.u.u.i.y...y.y.X.y...y...' | | | | B s f f u f f e f f r f r f e 4 t e r e u , . ",
"S 6 2 : & : , : * 8 m d s g k f f f f f e ~ D.H.H.H.H.m.M.M.M.M.n.M.M.M.0.6.5.5.7.,.h s f f f f f f s f f f e 7 1 7 e r f u 3 @ ",
"U t t u 3 4 e w : 7 m u s C f f f f f i Z C.F.S.S.D.A.x.b.v.v.v.b.b.b.b.w.2.2.2.3.5.o.i f h f f f r e r f f i 7 8 e f f f f 3 @ ",
"D 8 y g w r f e 1 r f s f r r k u f f f j.H.D.D.D.F.V.v.n.v.b.n.b.b.b.b.v.8.3.3.3.3.5.' q h f f e f u e f f e w e u f f y u 3 o ",
"7 r f f f x s s 7 e r f f s y m k u e u.F.D.D.D.D.S.c.b.n.b.b.n.b.b.b.b.b.q.3.3.3.3.3.3.J i h f f f f s f u f f u r f s d k 2 O ",
"A a f a g s i g 0 8 i g f f r f g 0 t.F.D.D.D.D.D.S.v.b.b.b.b.v.b.b.b.v.n.w.2.3.3.3.2.3.:.M i h f f h u s u h h r f r 7 7 t 5 O ",
"E i r a g s g d i 8 i g f e f f r G S.G.D.D.D.D.G.V.b.n.n.n.n.n.n.n.n.n.n.v.8.5.4.4.r.3.5.=.h s f f f f h s h r r s e 7 < 6 2 O ",
"I r r a y g f i a e r f f s u f u f.A.Z.B.Z.Z.Z.B.h.e.l.l.l.l.l.e.e.e.l.l.k.<.-.-.;.;.-.-.1.` i u f f f f f s u f s e 7 4 1 > + ",
"G w e f f s g f a a a f s r u f h X.n.v.v.b.b.b.v.9.3.3.2.3.2.3.3.3.2.2.2.2.$.{ { { { { #.#.H i u f u f f f s s h f f w 4 6 > + ",
"W 8 4 0 u h f g f d s f u s f f f u s.M.b.b.b.b.n.l.2.3.3.3.3.3.3.3.3.3.4.:.{ #.O.{ @.{ #./ i h h f f f v r r v u r r u 6 4 > O ",
"Q w < 7 h z s r f a f y a a f f f s z g.n.b.b.b.b.v.8.3.3.3.3.3.3.3.3.3.r.%.@.#.{ @.{ O.( i h u f f f u r s h s r r c e 7 5 > O ",
"C t 3 3 u h e e a e f f f y s f u h s S x.n.b.b.b.n.q.3.3.3.3.3.3.3.3.3.3.} @.#.@.@.+.) g h f f f f f f b r v s r v u w 4 6 2 O ",
", 3 4 4 r h s h f f f f f f f e f f f i K v.b.b.b.n.x.2.3.3.3.3.3.3.3.5.-.{ #.#.O.+.] z s h f u f f u f r s r u r e w w < 5 > O ",
"V 7 7 e h r r u f u f f f f f f u f f h q _ n.b.b.b.b.8.3.3.3.3.3.3.3.r.$.@.#.{ #.} n s h s f f r f f e e f f f s f e 3 3 5 3 O ",
"U 7 7 r r r b u r f f f f u f f f f f f f q  .n.b.b.n.w.2.3.3.3.3.3.4.:.{ { { #.{ N i f f s f u r f f f f f f f r f u 7 5 3 2 @ ",
"L w 7 f s s r r f f u s u f f f f f f u f k e p.n.b.b.v.8.3.3.3.3.3.4.&.[ #.#.O.H i f f f f f f e f f u f f s i e s r w 7 2 2 @ ",
"W w w h h r r y f f f f f f h h f f f f f h f s d.M.b.b.9.3.3.3.3.3.2.$.@.{ O./ s u f h h f f f f f r s f r e 7 7 e e w 7 3 > @ ",
"F e e f s g d f u f f f f f h k f f u h f u f r z g.n.b.l.3.3.3.3.3.:.@.{ #.( i h f f u f f f f f f e f f f e 7 1 7 r e 8 3 > + ",
"1 w f k r y g f f f u f f f f f f f f f f f f z r S x.n.b.9.3.3.3.3.%.@.O.] s s u f f f f u f f s u f f f f f w 7 7 r s e 4 > + ",
", 7 m x i s h u u f f h u h f z f f z f f f f f h i Y b.n.q.3.3.3.2.} { ] u s f f f f f f u f u r f u f f f f y e e r f u 6 2 + ",
"A f r k g f u f f f f f f f f f f f f f f f f f f h e _ n.z.1.3.5.*.O.} M s f s h u f f f f f f f f s e e f f f r e r r r 7 2 + ",
"Q f u z u u f k f f f f f f f f f f k h h f f f f f u 0 ..n.9.3.r.$.[ N s f f f u f f f f f f f f f s u r h h h u w 6 9 c w 2 + ",
"W u e x f f d d u f u f f f f f z u f f f f f h f f z f i a.e.2.:.O.H i h f f f h f f f f h u f f f f f h h s s h e 6 , 1 6 2 + ",
"U e w k k f f d f f f f f k h f f f f f f h f f f f s f f f s.r.&.^ s g f u u f f f h f f u f f u f f f s h h h r e 9 , < 4 2 + ",
"G w 7 h f k f d f f u k f f h f f f f h f h k f f f f u f r C >.) i f s f f h f f h h k f f f f f f h s g h h s r h c 1 4 6 2 + ",
"U 7 7 d f d k f f u f f f f h f f h f h f f f f f f f f f f i n h f f f f f f f f f f f f u f f f f f u s h s h v u u y c w 3 + ",
"R 7 7 e u f f m f f f f f f f f f f f h f h f f f f u f f s f s f f s f h u f f f f f f f f r f f f f h h h s s u u u u r u 3 + ",
"W 7 1 r g m d g f f f f f f f f f f f k h u f u f f f f f f f f f f f u f f f r u f f f f f f f f f f f h r h r h h e e 9 y 3 + ",
"T 7 1 y f k d f f f f h h k h h k f f f f f f f u f f s y f f f u f f f f f u f f f u f u f u f f f u f h s s s h h w 4 , 7 , + ",
"K w 7 e y d f f f f f f f f f k f f f f f f f u f r e f r f f y r r z f f s u f s u f f f e e f h u r f f f f f u r r e 7 = % o ",
"T 7 < e f f f g f f f f f f f f h h h f f f f f r f f f f f f f f f f f f u f f r f r f f r f f f f f f f u r f r u f s 9 7 : @ ",
"W 9 7 s f f f f u f f f k f f f f k f u f f f f e f f f f d e r f f r s y s u f s e s e f f f f f f f r f f f s w u h r r r 3 @ ",
"A e r f s f g r s f u f f f f f f f f f f u f u r f z f f a s s f u f e f f f f f f s u e f g e u f f e f f f 9 w 8 e s d e , O ",
"K w e h u f k g f f f f h f f f f f f f f f f f f f f f f f r g s f f e e g g f f f f e a f f s f f f e f f e 7 3 7 e s f u 3 @ ",
"T r 9 v f s e f f u f r f u f f r u f f f s y f f u u f f u f i w r f f f f f f e f f f r f f y r f f f f f i 7 7 e f r r d 4 o ",
"c y r r h g f f f f f f f f f f f f f f f f f f f e s f f f w 7 7 e g f s f f r 7 e f f s f f f e f f f e e e i e u f f f f 3 o ",
"< e c r g x f f h u h u u r r r f f u f f u f f f s r f f e 7 7 7 w f f e d f f 7 e f f r y f f f f f e 8 7 7 e u r r s u t 3 # ",
"F h k y k g f f s e u t 6 4 4 7 r r r h h f e s s s r s M e w 9 s s s r h d f d t w e e w r k m r v c e 7 3 3 7 r f e 9 7 t 2 # ",
"E k f k k y f s r z u 8 1 3 3 7 r f r g h h f f s s s v h u y w r y u f f f d f e < 7 w w v h u e r r r 9 4 3 4 e h e 7 3 w 2 @ ",
"I r e f f f s s r C u 3 3 7 4 t r c u e r e f e r r r r s e w 6 7 e r r r s g g 9 = 9 e r s b f r h r e e w w 7 r r r 9 3 1 2 O ",
"R 0 w f k f u r u u e 7 w e e M u r e 7 7 7 e f s s v e w 9 4 1 1 0 f v f f s f 9 * 9 s s r s h h r 9 9 9 e e y h u v 9 3 4 3 o ",
"Y 7 1 0 e f h h r 9 r r r u v e w 7 4 5 3 , 9 y h r y w w 5 2 2 3 7 w r r h h g 3 * e h v h u e w 9 < < < 7 y z u e e t 4 4 2 o ",
"T 9 3 7 t t u u 1 * 7 v e r e 9 7 4 5 4 6 4 6 t e 9 w 6 5 5 5 5 3 4 1 4 8 t t 8 * 2 y y y u y 4 4 4 4 < 3 8 t u t 8 w 7 4 6 2 @ ",
"C 4 2 2 2 2 2 2 $ O : 3 , 3 < , 2 ; ; 2 5 2 3 3 2 2 , > 2 > 2 2 5 5 2 : 2 2 > % O > 3 3 2 2 5 : > 2 > : 2 2 3 3 3 2 < , : 2 > # ",
"; O + + # @ + O X X # O o O O + O + + O O + + . + . . + + + + O O O + o @ # #   X + o O % o + + O + O + O @ + O O % @ @ o @ + X "
};
