/* XPM */
static char *_0bdc7065ded48b0930a657e46366d53hcDBhRtAGkTeMhu4[] = {
/* columns rows colors chars-per-pixel */
"50 50 99 2 ",
"   c green",
".  c #39FF39",
"X  c #8BFF8B",
"o  c #A8FFA8",
"O  c #BFFFBF",
"+  c #C7FFC7",
"@  c #A0FFA0",
"#  c #69FF69",
"$  c #2AFF2A",
"%  c #19FF19",
"&  c #B9FFB9",
"*  c #F8FFF8",
"=  c white",
"-  c #FEFFFE",
";  c #DBFFDB",
":  c #2EFF2E",
">  c #9FFF9F",
",  c #A5FFA5",
"<  c #05FF05",
"1  c #08FF08",
"2  c #D5FFD5",
"3  c #F4FFF4",
"4  c #31FF31",
"5  c #03FF03",
"6  c #E5FFE5",
"7  c #F1FFF1",
"8  c #0AFF0A",
"9  c #B2FFB2",
"0  c #55FF55",
"q  c #FDFFFD",
"w  c #97FF97",
"e  c #42FF42",
"r  c #22FF22",
"t  c #ACFFAC",
"y  c #24FF24",
"u  c #E2FFE2",
"i  c #EEFFEE",
"p  c #2CFF2C",
"a  c #FAFFFA",
"s  c #AEFFAE",
"d  c #3BFF3B",
"f  c #F9FFF9",
"g  c #07FF07",
"h  c #B7FFB7",
"j  c #90FF90",
"k  c #D8FFD8",
"l  c #D2FFD2",
"z  c #E9FFE9",
"x  c #52FF52",
"c  c #C6FFC6",
"v  c #80FF80",
"b  c #26FF26",
"n  c #37FF37",
"m  c #9EFF9E",
"M  c #7AFF7A",
"N  c #6CFF6C",
"B  c #50FF50",
"V  c #3CFF3C",
"C  c #75FF75",
"Z  c #5FFF5F",
"A  c #5AFF5A",
"S  c #84FF84",
"D  c #3FFF3F",
"F  c #A7FFA7",
"G  c #11FF11",
"H  c #C8FFC8",
"J  c #47FF47",
"K  c #FBFFFB",
"L  c #DDFFDD",
"P  c #86FF86",
"I  c #17FF17",
"U  c #0FFF0F",
"Y  c #BDFFBD",
"T  c #E6FFE6",
"R  c #A2FFA2",
"E  c #4AFF4A",
"W  c #C0FFC0",
"Q  c #E7FFE7",
"!  c #F5FFF5",
"~  c #3DFF3D",
"^  c #8CFF8C",
"/  c #36FF36",
"(  c #63FF63",
")  c #15FF15",
"_  c #1BFF1B",
"`  c #62FF62",
"'  c #E4FFE4",
"]  c #B3FFB3",
"[  c #7EFF7E",
"{  c #D0FFD0",
"}  c #9DFF9D",
"|  c #96FF96",
" . c #83FF83",
".. c #14FF14",
"X. c #AFFFAF",
"o. c #F7FFF7",
"O. c #8AFF8A",
"+. c #73FF73",
"@. c #92FF92",
/* pixels */
"                                                                                                    ",
"                                                                                                    ",
"                                                                                                    ",
"                                                                                                    ",
"                                                                                                    ",
"                                                                                                    ",
"                                                                                                    ",
"                                                                                                    ",
"                                                                                                    ",
"                                            . X o O + @ # $                                         ",
"                                      % & * = = = = = = = = - ; :                                   ",
"                                    > - = = = = = = = = = = = = - , <                               ",
"                                1 2 = = = = = = = = = = = = = = = = 3 4                             ",
"                              5 6 = = = = = = = = = = = = = = = = = = 7 8                           ",
"                              9 = = = = = = = = = = - = = = = = = = = = +                           ",
"                            0 = = = = = = = q w e 5   r t - = = = = = = = y                         ",
"                            u = = = = = = i p             $ a = = = = = = s                         ",
"                          d = = = = = = f g                 e = = = = = = f                         ",
"                          h = = = = = = j                     k = = = f l j                         ",
"                          z = = = = = f g                     x c v b                               ",
"                        < - = = = = = O                                                             ",
"                        n = = = = = = m                                                             ",
"                        x = = = = = = M                                                             ",
"                        N = = = = = = B                                                             ",
"                        v = = = = = = V                                                             ",
"                        C = = = = = = Z                                                             ",
"                        A = = = = = = S                                                             ",
"                        D = = = = = = F                                                             ",
"                        G = = = = = = H                       J K L P I                             ",
"                          7 = = = = = q U                     Y = = = = T w g                       ",
"                          O = = = = = = R                   g a = = = = = - 1                       ",
"                          E = = = = = = K G                 O = = = = = = W                         ",
"                            Q = = = = = = ! ~             ^ = = = = = = = /                         ",
"                            A = = = = = = = - s ( ) _ ` T = = = = = = = '                           ",
"                              ] = = = = = = = = = = = = = = = = = = = = 0                           ",
"                              5 u = = = = = = = = = = = = = = = = = = [                             ",
"                                g { = = = = = = = = = = = = = = = = }                               ",
"                                    | q = = = = = = = = = = = = *  .                                ",
"                                      ..X.3 = = = = = = = = o.O.5                                   ",
"                                            $ +.@.@ @ M J G                                         ",
"                                                                                                    ",
"                                                                                                    ",
"                                                                                                    ",
"                                                                                                    ",
"                                                                                                    ",
"                                                                                                    ",
"                                                                                                    ",
"                                                                                                    ",
"                                                                                                    ",
"                                                                                                    "
};
