/* XPM */
static char *bbc8a93c82a74dfcb44ab3602bcaa542Jck6SmMmaxND6TpY[] = {
/* columns rows colors chars-per-pixel */
"64 64 159 2 ",
"   c #010000",
".  c #090603",
"X  c #070803",
"o  c #0B0A06",
"O  c #0E0D09",
"+  c #110E07",
"@  c #110E0A",
"#  c #0F100A",
"$  c #111107",
"%  c #14130D",
"&  c #19160F",
"*  c #18180E",
"=  c #141310",
"-  c #191612",
";  c #171812",
":  c #1C1A13",
">  c #1E1E19",
",  c #211D16",
"<  c #211E19",
"1  c #232217",
"2  c #24221A",
"3  c #29261D",
"4  c #2C291F",
"5  c #292621",
"6  c #2D2B23",
"7  c #312E24",
"8  c #332F29",
"9  c #3A2F29",
"0  c #343126",
"q  c #3A3426",
"w  c #36322A",
"e  c #3A352C",
"r  c #37392E",
"t  c #3C392E",
"y  c #3B3631",
"u  c #3D3A33",
"i  c #453E2E",
"p  c #423C33",
"a  c #444135",
"s  c #4A4436",
"d  c #464339",
"f  c #4A463A",
"g  c #4D4A3C",
"h  c #514C3D",
"j  c #55513F",
"k  c #4E4C40",
"l  c #524E42",
"z  c #565244",
"x  c #5A5545",
"c  c #5C5947",
"v  c #56534B",
"b  c #5A554B",
"n  c #5D5A4B",
"m  c #5B5751",
"M  c #5E5B51",
"N  c #605A47",
"B  c #625C4C",
"V  c #625E52",
"C  c #5F604E",
"Z  c #65614E",
"A  c #69644F",
"S  c #656252",
"D  c #6B6554",
"F  c #6E6956",
"G  c #676358",
"H  c #6C6659",
"J  c #6E6A5A",
"K  c #706756",
"L  c #706A57",
"P  c #70675A",
"I  c #756E5E",
"U  c #756F5F",
"Y  c #746E5E",
"T  c #766F5F",
"R  c #756F5C",
"E  c #726B5A",
"W  c #73705D",
"Q  c #74715E",
"!  c #76715E",
"~  c #77725F",
"^  c #76705D",
"/  c #78715F",
"(  c #79725F",
")  c #6F6D61",
"_  c #746E60",
"`  c #756F61",
"'  c #736D61",
"]  c #737061",
"[  c #747160",
"{  c #767060",
"}  c #777060",
"|  c #777161",
" . c #767061",
".. c #797260",
"X. c #7A7361",
"o. c #797262",
"O. c #797363",
"+. c #797663",
"@. c #7B7663",
"#. c #7A7265",
"$. c #7A7363",
"%. c #7D7865",
"&. c #79766A",
"*. c #7C7968",
"=. c #7E786C",
"-. c #7A7D72",
";. c #847F6B",
":. c #827C6C",
">. c #817E75",
",. c #837F74",
"<. c #83806D",
"1. c #83806F",
"2. c #85826F",
"3. c #83856F",
"4. c #85846F",
"5. c #83826E",
"6. c #838071",
"7. c #838270",
"8. c #848170",
"9. c #878070",
"0. c #858271",
"q. c #868370",
"w. c #848172",
"e. c #868072",
"r. c #868570",
"t. c #858472",
"y. c #838174",
"u. c #838377",
"i. c #858375",
"p. c #858376",
"a. c #868475",
"s. c #878576",
"d. c #868372",
"f. c #8A8572",
"g. c #888574",
"h. c #8A8674",
"j. c #868873",
"k. c #898873",
"l. c #8A8974",
"z. c #8C8976",
"x. c #8F8A77",
"c. c #8B8D77",
"v. c #8B8976",
"b. c #828278",
"n. c #8A867A",
"m. c #8C8678",
"M. c #888478",
"N. c #86897A",
"B. c #8C8978",
"V. c #8F8979",
"C. c #8E8B7A",
"Z. c #8D8B7D",
"A. c #908B77",
"S. c #918A78",
"D. c #90887B",
"F. c #918E7D",
"G. c #918B7F",
"H. c #928F80",
"J. c #918F82",
/* pixels */
"c.3.l.3.3.x.f.x.%.h q x ;.F.B.h.M.,.D.#.f x 3.C.3.t.j.J C b.b.d b.b.j.b.j.i.0.0.%.g q z 5.F.n.y.n.9.D.#.f N ;.S.;.S.5.F G y.y.u ",
"3.S C Z S W E F A j z B S n c B B x D D z c D n D S n v v V V v G C M C M C S S S c j Z S n n V n x D D z N K N A B c c z M M e ",
"3.c c D F E L L L L ..{ H B c n N B V F D L F Z C F S x n b b V v v c c C S S D D F R ^ F n n B N B V K D E K B K B N Z c z v u ",
"l.C A ( E F F R R L L E E E F F R _ L F ^ ^ F D C W ] G B n b n n C G J W Q Q W L R R ^ E ] L E R R L P R R E K A K F F V b m u ",
"3.A F W A F L L E L K P F J E _ E E F K ( R B N n c D R V n V n H H E ' E W F F R L L L L K E R L E F L ( R B N j Z G J V M m u ",
"c Z ~ W F @./ K / E R } _ F E _ K L K E R E K D A x D { D F _ P ' _ E E J E L E R L L R E K E E F F L L _ L K D c Z G ) G C m u ",
"h Z E F L ( F K K K P E R L L F E L E R D K / ( D F E F L _ } E E E F D H L W ^ K K L E ^ E E E L L R R F F / ..F F J ) ) M v u ",
"<.( L A ^ ^ A / E E E L E R R L / A K R E E R D F %.E F _ E V L H G H F F F D A L L R E L L E R ^ A L ^ L E E D F W G ) ) M v y ",
"x.K K E K E R E P E K E :.K K :.L R L L E E E P I P H P F V B n B n n B B N B B B V P K L L E L L E E L L L E L ( Z C Z J G m u ",
"f.D K / K E E K K E E E A K K A E E E L E E E P P V V V b z h f f p p p f f h l z x B B D F L L L E E L L E E E W A C x C M m u ",
"f.B K / E E E K E E E E K E K K E E E L E P H V B v k p p e 0 0 7 6 8 8 8 7 w y p s l x n S H F L W E E E E E E W F F j v m m u ",
"m.B B R E E R K E K E E :.E K E L R L P H G V v g p w 6 5 1 : : - & & - : < < 5 7 w p p g v n S F F E L E E E L L F F c C M m u ",
"f.B B L K E E E L L L L K K L L L L L D V x f p 9 6 < - % # o X . . . X O O - = - < 5 7 u d l v Z A F E E E F L W A W F ) ) m r ",
"x.B n F K E R E :.L R R K K R L L L D B z f w 6 < - @ o X X X           .     . . + % , 3 w a g x Z F L E E E E W F F Q ) ) m u ",
"l.n x F E E L L K K L L L R L L K D x h p 7 2 : O O .         X       X         .   X @ ; 1 8 u f z B G F E E W F W A J M ) v u ",
"h.n c ' R E R L K K L R L L L R Z B g i 7 , % X X                                     X X % > 6 i f x V F E L L F ( C C d J v r ",
"m.n x E R L L R / K E E L E L S n k t 6 : # X X       .                                   X O ; 6 t h c S F E L L E L L N g a q ",
":.B B E E H L ..K B K R K K F B z u 4 : # X       . .                                       o O : 4 u k b D E J F L W L F A l a ",
"G.B n D H E } B i h x V N B B z a 6 : o           .   .                                       X O : 0 a l V H L A A W W E P x p ",
"q a 7 i ` H i i f N P P D D B f 0 > $ X         .   .                                           X % 1 w f n D D Z Z A L E E b w ",
"D.V m v i p b z f V :.P G V l e 2 = .           .   . .                                         X X - 5 p l N B j Z D F J ' n y ",
",.m P ' N N P P s V I P V M f 6 ; o .       .     .   .                                           X o : 8 f b n Z D E E ' ' b p ",
",.B P :.N D :.V x P ' H V l e 1 O .       .                                                         . = 5 y l n D L _ E P ) b y ",
"p ' #.V #.:.D #.V H E G n d 3 * .       .                                                           . o - 8 k b D F E P P P m p ",
"M.E #.H :.A A R K K A B z r * $       . .   . .   .                                             . . . O - 5 p n S E J Z c G M y ",
"m.D F D ( E L E K B B B g 6 * o       .   .   . .                                               . .     = < u l S F F n z G b y ",
"c.S F F ( L E K K K B N a 3 # X     .                                                           . .     + : 7 f B D J C b M v u ",
"t.n F E E K E K R K B l r 1 o X       .                                                         . .   . o - 7 p n F W G M M m p ",
"s.c C S W L R R E K B k 9 > o                                                                   . . .   . % 4 i x S J F M M v y ",
"J.C x x Q Q E K E D m k 8 - o                                                                           . + 3 t z S ) H n M v y ",
"&.V n z R _ H P E D N d 5 = .                                 .                                         X O 1 r z C F G m V m y ",
"f v G z L E K } E D N p 5 = .                                                                           . $ 2 r z Z H V b m m y ",
"d.x B _ E E L E J F c a 5 = o                                                                           . + , e l B D B b V V 9 ",
"x.B B D D E L R F D z t 5 = X                                                                           . + 3 i z D F B n b m y ",
";.n V L E E L L F D b p 2 = X                                                                     .     . & 2 t h D L V m m m y ",
"l.Z D } } ' P L E D c p 6 = X                                                                           . & 3 t f B L D V v m p ",
"f.F F F H R L E L D c s 6 : X                                                                       .   O - 5 u f c G F V v v y ",
"x n O.E D E L R L D c s 0 : O                                                                     . . . O > 8 d g n J ) ) m m p ",
"g c +.O.L ' L R L F Z g e 1 @                                                                     . . . = 5 y k c S J ' ) M m u ",
"r.E J F E ..F L E F Z j i 2 & X                                                                 .   . . = 5 p b G D H ) ) m m y ",
"x.F F R J P E E E L A N i 7 , O X                                                                   X @ < w g c J C C Z F J m u ",
"l.S H { E ' E P E E K N s t 2 $ .                                                         .       . O - 6 u l V J Z C j C C m u ",
"r.S D { ' P ` P E E E B l i 6 : O X                                                               . % 2 y f n S W F Z h b m v u ",
"r.Z B E P E E P K K E K N g e 2 % o X                                                         . . @ > 6 p v B D L F J c C M m r ",
"f.B B L P P ` P E E E K S z a 0 > % X                       . .                             . . + & 7 i l B F F L F R D ] G M r ",
"l.N n P E ' I I E E E E D n k u 6 > O X   X                                                 . O & 4 t f x A F L L L L R ] ) m u ",
"h.n N P P I I P E P L L F G v g r 6 > % X X                   .                         X X = > 4 i h n Z D L L L ( B L V ) m u ",
"f.c x I I I P P E L L R L F G v k u 6 > % X X               .                         . o # > 6 t f x V F L ^ L L ( B B f ) v u ",
"3.Z c F R K K K K K E E L E K A x g t 7 < & + . . .         . .     .             X O $ ; 1 w p h N Z L E E E E Q F L F C g a 0 ",
"l.c j A I R I :.L K K E E L K K B N h p q 3 , - o o . . .   .             X . . O % * 1 6 r f l N Z F E P J J E F J Q F Z Z x t ",
"c.C C L P P P D R E K E E E K E K V N j g y 7 5 > - = O o o . . . . . . + + % & : 2 6 t d l b V D P P P E E R E D F W E J ) n t ",
"5.Z J @.K P I K E E E E E E I E P K V B x l p p 9 8 5 < < : - % > - - : < < 3 6 e i f h v Z D H H L E L ' ' E P Z Z F E J G c r ",
"y.n S +.E H ' I ' E J ) P I I P E K K K V B x z k p p e w 9 7 6 8 7 7 w e p a f h b B V D K E F R R E P ' ' H N x B G P ) ' m p ",
"F.S V ' ` ' I I E ' J ] I P P P R E L L P P V V V x z l l g f s p f h h h x n B n D H F P E E P E L E R _ P P V B H ' P J ] V y ",
"*.J F F ` I K P J E E J E E E I E L E L E E F D V V B V V B x h h c S B B D D F B D E P K R E K L K L E P P P L P E ' ' H ' m y ",
"d A +.D P #.I P J E J J J E E E E L L E E E L K P K K K P D B z x D E L D L E E N D R L K E E K R E L L V B B K E P P ' ' ' m p ",
"<.Q L K P R K K R D W D x c c c _ K D L R K D E R L L L F D Z B L L L L L L E E K K A K B K I E E ^ ( K N N N B F R F n B G b p ",
"l.Q L E E E P #.F E W n c C j Z L E R / ( R R R E E R _ Q E F D F W ( Q R L E R D x N D A E E K A K L D A N j z L R J S n D b p ",
"3.Z Z R K K P P D { J z n Z j L D E ' F D H L L F D L E L F S Z N D L E E L K L F s V H P P I I E L L L K D G B L F F n l n b w ",
"c.C B :.E E P P F E F c Z F F ( J ' H V n B H _ ' ' ' E G V m b Z F E R E Q E E P i P E / K P #.^ L D D V D J J { F E F b V m y ",
"N.b b J P P ' ' ' V H ' D E ' H H V M b z z M ) ' J H G M m v c b C G D F ) ] ) V p E H ' ' ' G Z B n x v M F ] ) S ) G b M b r ",
"N.n v C V P ' P V k V #.F ) ' V M b v M M b M F G V V M m m m M v n n b G H F G g l ' ' ' ' ' n B B M n m G G ) G C G V b M v y ",
"-.G n b m b b V p i l m b B m v v v b n M b b M M b v m m m m m M V m z v b v f e b M m b b M l z b b v v v m n n n b c v m v d ",
"u r r r p p 9 p 9 9 p 9 p p 9 p y u u r r u u r u y y y u y y r r u y r r a u 8 w f 8 p u 8 p u p u y y u u u r u u y r u u y y "
};
