/* XPM */
static char *_009a3ef5ccb4986eb1f956310f69bd2SZk28ADbYulNw32r[] = {
/* columns rows colors chars-per-pixel */
"50 50 21 1 ",
"  c green",
". c #05FF05",
"X c #28FF28",
"o c #07FF07",
"O c #7BFF7B",
"+ c white",
"@ c #8CFF8C",
"# c #7EFF7E",
"$ c #90FF90",
"% c #57FF57",
"& c #15FF15",
"* c #FEFFFE",
"= c #FDFFFD",
"- c #62FF62",
"; c #75FF75",
": c #92FF92",
"> c #24FF24",
", c #71FF71",
"< c #60FF60",
"1 c #74FF74",
"2 c #FBFFFB",
/* pixels */
"                                                  ",
"                                                  ",
"                                                  ",
"                                                  ",
"                                                  ",
"                                                  ",
"                                                  ",
"                                                  ",
"                                                  ",
"             .XXXXXXXXXXXXXXXXXXXXXo              ",
"             O+++++++++++++++++++++@              ",
"             #+++++++++++++++++++++$              ",
"             #+++++++++++++++++++++$              ",
"             #+++++++++++++++++++++$              ",
"             #+++++++++++++++++++++$              ",
"             #++++++%%%%%%%%%%%%%%%&              ",
"             #+++++*                              ",
"             #+++++*                              ",
"             #+++++*                              ",
"             #+++++*                              ",
"             #+++++*                              ",
"             #++++++==============-               ",
"             #++++++++++++++++++++;               ",
"             #++++++++++++++++++++;               ",
"             #++++++++++++++++++++;               ",
"             #++++++++++++++++++++;               ",
"             #++++++::::::::::::::>               ",
"             #+++++*                              ",
"             #+++++*                              ",
"             #+++++*                              ",
"             #+++++*                              ",
"             #+++++*                              ",
"             #+++++*                              ",
"             #++++++,,,,,,,,,,,,,,,<              ",
"             #+++++++++++++++++++++=              ",
"             #+++++++++++++++++++++=              ",
"             #+++++++++++++++++++++=              ",
"             #+++++++++++++++++++++=              ",
"             1+++++++++++++++++++++2              ",
"                                                  ",
"                                                  ",
"                                                  ",
"                                                  ",
"                                                  ",
"                                                  ",
"                                                  ",
"                                                  ",
"                                                  ",
"                                                  ",
"                                                  "
};
