/* XPM */
static char *e8a9cc5fb6b841e9ee85587d3d630609uO1ahqO1iA6ureeU[] = {
/* columns rows colors chars-per-pixel */
"64 64 130 2 ",
"   c #342F2C",
".  c #363427",
"X  c #36342D",
"o  c #3A362E",
"O  c #3B382F",
"+  c #353333",
"@  c #3A3633",
"#  c #373833",
"$  c #3D3A34",
"%  c #3D3A3A",
"&  c #433D2D",
"*  c #413C35",
"=  c #423E3A",
"-  c #454135",
";  c #4B4635",
":  c #484937",
">  c #43423A",
",  c #4A443B",
"<  c #4E493C",
"1  c #504B3A",
"2  c #434240",
"3  c #524E44",
"4  c #544F49",
"5  c #565345",
"6  c #595545",
"7  c #5C5946",
"8  c #56534B",
"9  c #59554B",
"0  c #5D5A4C",
"q  c #565551",
"w  c #5A5651",
"e  c #5D5B51",
"r  c #605947",
"t  c #625D4D",
"y  c #625E52",
"u  c #64614E",
"i  c #68624F",
"p  c #656253",
"a  c #6C6554",
"s  c #6E6956",
"d  c #6C665A",
"f  c #6D695A",
"g  c #716756",
"h  c #716A57",
"j  c #706758",
"k  c #746D5D",
"l  c #766D5C",
"z  c #756E5C",
"x  c #766F5C",
"c  c #776F5C",
"v  c #776E5D",
"b  c #766F5D",
"n  c #766D5E",
"m  c #746E5E",
"M  c #756F5F",
"N  c #766F5F",
"B  c #726B59",
"V  c #786F5E",
"C  c #786E5E",
"Z  c #75705C",
"A  c #75705D",
"S  c #77705E",
"D  c #77725F",
"F  c #75705D",
"G  c #78715F",
"H  c #79715F",
"J  c #6F6B60",
"K  c #716D61",
"L  c #756D60",
"P  c #746E61",
"I  c #786E62",
"U  c #777163",
"Y  c #747064",
"T  c #777262",
"R  c #797061",
"E  c #7A7361",
"W  c #7B7461",
"Q  c #7C7563",
"!  c #7A7464",
"~  c #7B7567",
"^  c #7C7565",
"/  c #7A7362",
"(  c #787669",
")  c #7B796C",
"_  c #7D7D71",
"`  c #817B6F",
"'  c #827F6C",
"]  c #817F72",
"[  c #857F71",
"{  c #7F816B",
"}  c #83806D",
"|  c #85836C",
" . c #84816E",
".. c #86846F",
"X. c #84816D",
"o. c #818272",
"O. c #828373",
"+. c #878171",
"@. c #858271",
"#. c #848371",
"$. c #878173",
"%. c #868372",
"&. c #868571",
"*. c #868573",
"=. c #858772",
"-. c #858375",
";. c #868475",
":. c #848577",
">. c #858372",
",. c #898470",
"<. c #898471",
"1. c #888773",
"2. c #888274",
"3. c #888574",
"4. c #8A8476",
"5. c #8A8675",
"6. c #8B8974",
"7. c #8B8875",
"8. c #888A75",
"9. c #8B8975",
"0. c #848478",
"q. c #86837A",
"w. c #8A8778",
"e. c #88867A",
"r. c #8F8E7A",
"t. c #8B8A78",
"y. c #908C73",
"u. c #908E79",
"i. c #908A7C",
"p. c #8F8D80",
/* pixels */
"u.} 1.5.&.1.,.y.) < . 7 O.r.=.=.4.[ i.` ; 6 [ i.) =.8.f 0 :.:.- { { { e.:.O.O.O.) < . 7 O.r.1.&.5.[ i.~ < 6 ` i.| 7.| f p O.-.$ ",
"..p t y a D B g p 6 5 0 p 0 7 u t 6 a y 6 r s t s 0 7 0 8 e p 8 p p u e u u p u p 6 5 0 p 0 0 t t 7 a a 5 0 g t i t 0 0 5 y y . ",
" .0 0 a i B c a s f F k a t 0 0 t t p s a j f t p p p 0 0 9 0 y q 7 7 0 u p a s s B n n a t 0 0 r 7 y j a f B t a t 0 p 0 8 9 $ ",
"6.u a / c g i H B Z B B k n k f f k B B n n j s p Y Y p t w w 9 0 y p f Z F Z Z B B B B k P k d d k k B k k B s p f f f 0 0 q $ ",
"+.a s B h B h h h g h h j j k I B B a g G F i r 0 7 d J p 0 0 0 s s B n B B s s B g h h B j B / n B a s G n i r 5 p f a y e 9 # ",
"7 p Z h B H C g C B B C n j j n h B B B B B g g p 0 d T f d n f Z n n B B B B B B B B C l j B B h B B B B B a g 0 p a Z f e 9 = ",
"< y C g h Z g h B g s B B B j s h B B c a a B W s f B s f n F h f f h h h h B Z k s g B n B h s j B B B s a B W f j s B B 0 3 % ",
"` ^ h i Z c i H j n G B h h c B B s s C B G B g s ! B s I B i H k k B B B h c B f n C B h g B c n s h B B G B h k n s s h p 8 $ ",
"t.f f k j k I j B B B B h B B B B h B B B B B B B B B h B B B h f B B B B B B h B B B B B B B h B B B B B B B h n p 0 p d d q # ",
";.p s T j n j j B B B B B B h B B B B B h B h l B B B B B B B B B B B B B h B B B B h B B B B B B B B h B B B B Z p p 8 e p 9 % ",
"&.p a k k k j k B B h B B B B B B B B B B B B h B h B B B h B B B B h B B B B B B B B B B h B B h B B B h B B B s f p 5 5 0 q % ",
"+.u y k j k j j B B B B h B B B B h B B B B B B B B B B B B B B B B B B B B B h h B B B B B B B B B B B B B B B B s f 0 u 0 e # ",
";.u 0 f B k k k B B B B B B B B B B h B B B B B B B B h B B B B h B B B h B B B B B B h B B B h B B h B B B B B B s k f f d 9 # ",
"6.0 0 f j j k k B B h B B B h B B B B B B B B h B B B B B B h B B B B B B B B B B B B B B B B B B B B B B B h B B s k P F Z 0 % ",
"6.0 7 B B k B n B B B B B B B B B B B B h B B B h l B B B B B B B B h B B B h B B h B B B h B B B B B B B B B B h Z p g t k 9 # ",
"5.0 7 B n n B B h B B B h B B B B h B B B B B B B h B B h B B h B B B B B B B B B B B B B B B B B h B B h B B B h G t t < f 8 % ",
"5.t 0 s h h h B B g B B g B G f B B B B B B B B B B B B B B h l B B h B B B B B B B B B B B B B h B B B B B B h B B Z g r 1 = + ",
"+.0 t F F B h W a a h Z g s n B B h B B B h B B B B B h B B B B B B B B h B B B B B B h B B B h g c B B h B B B f B B B s u 4 = ",
"q.9 7 f d n k t * , 5 t r u a B B B B B B B B B h B B B B B B B B h B B c g B h h B B B h B B B s B Z g h h h c s d B B B j 9 $ ",
"$ - o $ d d * * 3 w k k B B Z B B B B h B B B h B B B B B h B B B B B B B B B B B B B B B B B B B B B B h B h a 0 p s a h B 9 . ",
"q.y 9 5 $ , 6 5 , y I k g B B s B h B B B B B B B B B B B B B B B B B h B h B B B B h B B B B B B B B g B Z g u 9 t g h B k 0 @ ",
"0.e d P 0 0 f f ; p P B B W I n B B B B h B B B B B B h B B h B B B B B B B B B B B B B B B h B B h s h B Z a u t a B B B k 0 $ ",
"-.0 B ^ t h ^ a 6 s Z B B h s a B B B B B B B h h B B B B B B B B h B B B B B B B B B B B B B B B B B g B B h i f B C B B d 8 @ ",
"; a G i C H a B u s s B G B f ! B B h B B B B B B B B B B h h l B B B B B h B B B h B B h B B B s B B B h B B B f s h B B K w % ",
"6.h B n C g g C i i g B n h h B B B B B B B B B h B B B B B B h B B B B B B B h B B B B B B B B B B h B B B B B B Z Z t 0 d e # ",
"1.s s s C B l g g i g B B h g B h B B B B h B B B B B B B B B B B B h B B B B B B B h B B B h B B B B B B B B B s h a 0 5 y 9 # ",
"&.a B s B B C g g s g B B h h B B B B h B B B B B B h B B h B B B B B B B h B B B B B B B B B B B B B B B B B B B B s u 7 e 9 # ",
"+.u f B B g C B B h h h B h B B B B B B B B B h B B B B B B B B h B B B B B B B h B B B h B B B B h B B B B B B B B B a 0 e 9 % ",
";.0 0 a Z s B B B B B B B h B B B h B B h B B B h B B h B B B h B B B B B B B h B B B B B B h B B B B B B B B B Z s Z f y 0 q $ ",
"p.p 8 7 F F h h B B B B B B B B B B B B B B B B B B B B B B B B B B B h B B B B B B h B B B B B B B B h B B B s s s s f 0 e 8 # ",
"( p 0 6 k n s a B B B B B B B B B B B B B B h B B B h B B h B B h B B B B B B B B B B B B B B B h B B B s Z B B Z s Z p 0 y 9 # ",
", 8 y 5 f B s F B B B B B B B h B B h B B B B B B B B B B B B B B B B B B h B B h B B B B h B B B B B B B B B B B B s e 6 e 9 # ",
"O.6 t G B s B f h B B B B B B h B B h B B B h B B B B B B B B B B B h B B B B B B B B B B B B B g B c s a h B B B B f 0 q q e O ",
"6.t 7 p s Z F s B B B B h B B l B B B B B B B B B B h B B B h B B B B B B B B h B B h B B B h B h B B B c H B B c B f 0 0 q e O ",
"&.0 t B s B B B B B h B B B B h B B B B B B B B B B B B B B B B h B B B h B B B B B B B B B B B B B B B B B c i g B B u 0 8 9 $ ",
"6.p p G G h a B B B B B B B B B B h B B B h B B h B B B h B B h c g B B B B B B h B B B h B B B B B B g B B i i u i f a y 8 w $ ",
"&.a s B B C h h B B B B B h B B B B B B B B B h B B B B B B B B B B h B B B B B B B B B B B h B B B B g B B a u 1 u s a p 9 8 @ ",
"5 p P k i C C B B h B B B B B B B B B h B B B B B B h B B h B B B B B B B B B h B h h B B B B B B h B B B Z B i u u s h f 0 w # ",
"< t ^ C g g h B B B B B B B B B h B B B B h B B B B B B B B B B B B B B h B B B h c B B B B B B s B B B B c B B s a B Z B p w % ",
"+.k s j l C g C B B B h B B h B B B B B B B B B h B B B B B B h B h B B B B B B B B B B B h B B B B B s s B B B Z s s B B 0 9 # ",
"t.a f k f B k B B B h B B B B B B B h B B B B h h B B B h B B B B B B h B B B h B B B B B B B B B h B B h B B B Z u e p f f q # ",
";.a s T f k k j B B B B h B B B B B B B B B h l h c B B B B B B B B B B B B B B B B h B B B B h B B B B B B B B Z p u 9 0 p q % ",
";.p p F j k k j B B B B B B B h B B B B B h B B B B B h B B h B B h B B B h B B B B B B h B B B B B h B B B h B Z f p 3 7 0 q % ",
"+.u p k k k n j B h B B B B B B B h B B B B B B B B B B B B B B B B B B B B B B h B B B B B B B B B B B B B B B s s J 7 0 e q # ",
"&.t t B f k k j B B h B B B B B B B B h B B B h B B B B B h B B B B B B B B c g B B B h B B h B B h B B h B B B B s k f Z p 0 # ",
"5.0 0 f j B n n B B B B B B B h B B B B B B B B h B B B B B B B B B h B B B h B B B B B B B B B h c B B B B B B B f f k Z Z 9 % ",
"5.0 7 f B n j n h B B B h B B B B h B B B h B B B B B h B B B B B B B B B B B B B h B B B B B B B B B h B B B B h Z a a u f q $ ",
"1.0 9 B n P j j l h B B B B B B B B B B B B B B B B B B B B B B h B B B h B B B B B B B B h B B B B B B B B B B h D u t < s 8 % ",
"&.0 t f h l g B B B h B B B B B B B B B B B B B B B g B B B B B B B B B B h B B B B B B B s h B c s h c B B B B F s g B r < * + ",
"6.7 5 B B l B C B B B B B B B h B B B h B B h B B h B B h B B h B B B B B B B B h B B B B B h B B h s B h h h B s B G h i a 8 $ ",
"6.0 t n B B B h B B B B h B B B h B B B B B B B h B B B C h h h B B B h B B B h B s s h h B B B h B B B c B B c p f F h g k y @ ",
"{ p B / g h G a B h B B B B B B B B B B h B B B h B n B B B B B B B h g B B B h B B B g B B B B h B B s B B B a p y a h B f 5 o ",
"{ p a T s B n B B B B h B B B h B B B B B B h B B B B B B B B B B B B h B B B B B B B h B B B g B B B h B B a r 9 t a h B B 9 $ ",
"t.p p Z n B h G B B B B B B B B B B B h B B B B B B h B B B h h a h B h B B B B a B n B B B B B B B B B Z B g i 0 h B h h P w O ",
"( f f f C n a B B h B B B h B B h B B B B B B B B B B B B B a t t h n B h B B h t g B B s B B h B h B B h a g h a B Z h j d 0 @ ",
": p T s g / h h B B B B B B B B B B B B B h B B B h h B B B t r r g B B h h h h t s B B B B B B c B B s u r t g Z s s n n k q = ",
"' n j f n I h B Z a f d e 0 7 0 B s s k n s s h Z h s B k f p y B h h B B n B n J y f f t s k T B F F s t 9 0 y s n s t t d w % ",
"6.n k n k B g B B B k y 0 e 8 0 B B k n n k B B B B B F F f f d B B F Z B h j g f 3 t p a n n g a h f s y 0 9 8 B B s t 0 p q % ",
",.t a B f j B c a T f 4 0 y 0 d h B B s a j B h a s s Z B s p e 7 i Z B h c B B f ; a p h B G B c B B B s a p 0 s s f u 5 w 8 @ ",
"y.u p / B B B s B B f t y s f K B f a y 0 t s k Z Z Z f s 0 7 0 u a Z B B B B B s & g B c i h G B s u u u p d f F s Z s 5 y r @ ",
"6.7 0 s f k B f F 7 s B a s Z a p p 7 0 8 6 t f h s s p p 8 8 7 7 t p a s n F B y - s s G B B p u u 6 5 9 t a k P a f s t y 0 @ ",
"&.0 8 y y d k k u ; u ! f s Z u t 9 9 w e 9 e f a p p p e e 0 e 8 0 0 0 p f f p , 8 P f k P P 0 u 0 0 0 t y d J d y p y 9 w 8 $ ",
"_ p 0 w 9 w 8 9 > # 3 e 8 0 7 5 8 8 8 w w e 9 w 0 5 8 8 q q q w e e 0 4 8 w 4 , + 8 y 9 9 8 e 8 8 8 9 8 4 9 9 0 9 9 9 6 8 9 4 = ",
"> X $ # $ * @ = + + % $ o $ @ % $ % @ @ @ $ * # $ # @ # % % # # + # % + @ = %   + 2 X $ * X $ % # % $ # @ * % % $ $ $ O # = % + "
};
