/* XPM */
static char *d462b47c9c044c56c5327840c485ae19zSKcFQEpYbS6W4Hy[] = {
/* columns rows colors chars-per-pixel */
"64 64 121 2 ",
"   c #35312E",
".  c #3D3B2F",
"X  c #363435",
"o  c #3A3632",
"O  c #3D3B35",
"+  c #3E3C39",
"@  c #403C36",
"#  c #413C39",
"$  c #474537",
"%  c #46423B",
"&  c #4A463B",
"*  c #4E4A3C",
"=  c #524C3E",
"-  c #4E4741",
";  c #4F4C42",
":  c #524E44",
">  c #524F48",
",  c #565245",
"<  c #5A5546",
"1  c #5D5847",
"2  c #55524A",
"3  c #59564A",
"4  c #5D5A4C",
"5  c #595750",
"6  c #5D5B51",
"7  c #625D4D",
"8  c #635E51",
"9  c #685F57",
"0  c #64614E",
"q  c #68614F",
"w  c #656252",
"e  c #6B6554",
"r  c #6E6956",
"t  c #666258",
"y  c #6C6558",
"u  c #6E6959",
"i  c #716655",
"p  c #726A56",
"a  c #706C57",
"s  c #706758",
"d  c #70675A",
"f  c #716859",
"g  c #716B59",
"h  c #736A5B",
"j  c #706C59",
"k  c #746C59",
"l  c #70685C",
"z  c #72695D",
"x  c #706A5D",
"c  c #736E5D",
"v  c #756D5C",
"b  c #766F5D",
"n  c #6F705E",
"m  c #77715A",
"M  c #77725D",
"N  c #76715F",
"B  c #7A7459",
"V  c #78715D",
"C  c #7E795A",
"Z  c #726E62",
"A  c #746E60",
"S  c #767365",
"D  c #747465",
"F  c #787365",
"G  c #7C7967",
"H  c #757269",
"J  c #7A7469",
"K  c #7E786A",
"L  c #7D7B6A",
"P  c #7F7D69",
"I  c #7C7A6D",
"U  c #7D7B6E",
"Y  c #7D7E6E",
"T  c #7E7F6F",
"R  c #817E5A",
"E  c #807D6B",
"W  c #807F6B",
"Q  c #827F6A",
"!  c #817E6D",
"~  c #837D6F",
"^  c #837F71",
"/  c #85825B",
"(  c #88865B",
")  c #8C8B5C",
"_  c #908F5C",
"`  c #93925C",
"'  c #97985D",
"]  c #9A9C5D",
"[  c #9FA25E",
"{  c #A2A55E",
"}  c #A5AA5E",
"|  c #A8AD5F",
" . c #ADB25F",
".. c #B1B75F",
"X. c #B3B95F",
"o. c #82806B",
"O. c #83816E",
"+. c #83826E",
"@. c #84826D",
"#. c #88836E",
"$. c #89856E",
"%. c #848271",
"&. c #848172",
"*. c #878173",
"=. c #878273",
"-. c #878674",
";. c #8D8A76",
":. c #878578",
">. c #B1B760",
",. c #B5BC60",
"<. c #BBC461",
"1. c #BFC961",
"2. c #C2CC61",
"3. c #C6D162",
"4. c #C9D562",
"5. c #CEDA63",
"6. c #D1DE63",
"7. c #D5E364",
"8. c #D8E764",
"9. c #DBEA65",
"0. c #E3F365",
/* pixels */
";.P ! &.! @.$.$.S ; O < E -.@.o.^ ! ^ A : < K &.E o.o.p 8 U J , D T T Y T T W W D : . < P &.@.! ! ~ =.b : < E &.E o.P r w I D $ ",
"o.r w w y M M h w < , 7 w w 0 w 7 7 u e < 7 u e e 0 7 4 4 8 t 3 6 w w 0 w w w e w 3 , 7 w w 7 8 8 8 u e < 7 i e r w 4 4 3 t 4 O ",
"E 0 4 w e p p e e r u u e 7 4 4 7 7 w e e e e 8 w w 0 4 3 3 2 8 3 < 4 4 0 0 e e e u h u e 8 7 4 4 7 w e e e e 0 0 7 4 6 3 3 , O ",
"@.e w c r e r p u v j j x y h e e u p r h h i w w u u t 8 3 3 2 4 7 w u u u n n j j r a u h u u e u r i u v p q w e r y 7 3 2 + ",
"E e e j p p p h p p p i h i x A j p e e v j q 7 4 4 e u t 6 8 7 e u j u m j a r p p p p h y h x p h e i c v q 7 3 w r r w 4 2 + ",
"7 8 p p r M c i h p h k h u s h r h h p v p e e w 4 y A h y j u h c h h u r p a h h i h x i h a u p a p u p e e 4 0 r a t 6 2 % ",
"= 9 p p p b p h h e u j u h i p p p p p e e p v r e j j u x b u u u p e i p j b h r e h v k p r i h a h e e a x u e r a r 4 ; O ",
"K b p q a a e c j j j p a p p h v e p p v v v e u M j e h r i h a u a h h p p p r h h p p p p p j p e h v v p p x u e e e w 2 O ",
"=.x e h h s h k k h j h p p p h r a j h a h a j p j p h h a p a p a h a h h p p a r j j u j p h j p j r h a a h j e 7 w t t 2 + ",
"&.u e c u h s e s p p j h h j r h p h a p p r h j j r a a h j u j h p h j u a h h p p k h p j j h j h p a p h j m w 6 3 4 0 2 + ",
"! e w c x k h h h p h p h p j p p p p h h h a p h h p p h p p p h p a h p p p k p j h p h p j j h p a h h p j a u r w > < 4 2 + ",
"! w 8 p h h h j j h r j a h j h v h j h a h h p h p h h a h h p j j j r h p b j h h h j p v k p h j h a h p r h r r u 4 4 6 2 + ",
"@.w 4 e j h y h p h k k h j j k h r j k j p h k p h u j h r j v h h p j k h h r r j j v p j r j h a h a a h h a u u n u a w 2 + ",
"&.0 7 e u h h h h p h j p r h h p a j j k j h j h r p v h a j k a p j h j h h a h j r h h h h a p p h p h p p p a u u u n r 3 + ",
"&.7 1 e h s j x r h e j h k p r h p h a h h v p h p j k h p h k k j p p p k p p p j h p p h p h r h a h h j a a a a w e 7 u 3 + ",
"@.7 1 u b h s i p a h p p j j a h a p h p j j r h k k j h p h j h h j k h a x v h k v p a h a p a h p r p j p a r m w 4 < 7 , O ",
"~ 0 4 e p p p h h i p r a p u s h j r j p p j h v p a j p h r a v k r p h h k a v h a p j u h h p j h p j h j p h r p e 1 = % o ",
"^ 8 7 j h h j j e 7 e r q e h a p h h h j h j p j u h p a v h j p a j v h p k k p a h h h p p p e k h p e p h a u r j h e 7 : @ ",
"J 3 , w u h e 7 * : 1 7 0 8 p h h h r k a h h b h h e h p e u h p h j h r j h j r j h h j p h r e j h p p r p p e e j v j e , @ ",
": & @ $ 6 8 = @ - 5 y r e p p b a p j j h h p p h p k u C { h p h p h j p v j r k j a h j p a p j j r p p h p q 4 w e e p e , o ",
"H 6 2 ; & * , : * 9 u h i v h h h j u h p a v r p u p h 1.| e h h j j j p a h p v h r j p p a h j i h p a j e 7 1 7 e i p u 3 O ",
"&.t y y 4 4 e w = 7 Z h h M c x p p j p u v v b h b e }  .e v h p u k k h h h h p h p v h h h a h p e i h b i 8 8 e j h h u 3 @ ",
"S w p c e e b e 1 e a r p u s u j h h j e 9 e 9 y 9 R 4.` r e h u h e h h j a h h p j k h a j j i h p e p j e w e r h j e u 3 o ",
"4 w k e h b p i 0 e p a v p s b h a j i )  . .| ) { 5.6.5.1./ e a R ) p e r h p j j h p a p h p u a a p p e h p u u j p u h 2 @ ",
"E h p p v i i i i q i p j p u j h a h e _ | ] | 4.7.6.6.8.9.8./ e ,.9.4.| R j k j k p v p p j h p j h h p p r p p j p 7 7 w 5 + ",
"#.p r i h p v i e 0 e j h p e j p p p h e 9 9 B 5.6.8.6.X.{ { ) u 5.X. .6.8._ y j u h h u h r h h r p h j h h h p r e 7 < 6 2 o ",
"@.u r r h p h i i e e p a i i a j j h p p v u ' 7.7.X.R v / / C R 6.` 9 B ` b e j h h h j p j p p h k p h p a p p p e 7 3 4 2 + ",
"P w e u h i p p h p i p h e p h p r h j h h e ' 9.} h b ` 8.7.6.3.6.R 9 ` >._ h r e p p p j k h p h j j j r h a j h r w 4 4 2 + ",
"&.w 4 e p u p h j p e h r a h a j p p j h i t / X.e X.2.k 2.7.6.7.6.X.C 2.8.7.5.| / a h h j r h u p j h j j h h u r r u 6 6 2 + ",
"-.w < 7 u b p p p h a i p p j p j h p h r ( ) u 9 { 9.7./ ` 8.6.6.6.8.4.6.` R >.5.9.' e k p j a j h p p a r j p u r n w 7 4 ; + ",
"Z w 3 3 u j e e r a p h h j p u i p h h h 2.9.X.( 4.6.7.,.h 3.7.6.6.6.7.4.h e y p ' R u p h p h a p j j a h v a r j n 0 4 6 : O ",
"2 3 4 4 r j p j a h h a h r j i j h v e ) 6. .4.8.6.6.6.8./ ] 8.6.6.6.6.6.) e b v t h h p p a h p h h j p p p a a u e 0 < 5 > O ",
"S 4 7 j a a u u p p a p h a j p p h h e | 6.x s ..8.6.5.8...m 4.7.6.6.6.8.,.k 1.4./ e h u j h a i r j e e p j a p h e 4 3 3 3 O ",
"@.7 7 w r j u u a h h h a p h h j u h h 5.,.9 8 ] 9.6.6.6.7.C ] 8.6.6.6.6.6.2.6.3.7.` y j j a p h p j j p h h p i p y 7 3 5 3 O ",
"P w 7 i p p p r h a h j h r p j p h h k  ./ { } ..8.6.6.6.8. .b 4.6.6.6.6.7.4.R h X.9.{ i h a h p h i j j h p i i p r w 3 2 2 O ",
"@.e w h v p e h h i p j p j h j h a h s y R 7.6.8.6.5.7.5.7.6.C | 8.6.6.6.7.] e h e } <.h a h p a j i h p p e 7 7 e e w 8 3 2 + ",
"K u e h p k p p a j j j p h r p h p p v 9 [ 6.C ` 5.6.6.6.6.8.| b 6.6.6.6.8.] y b p e h a p h a p h p j j p e 7 1 1 r e 7 3 : O ",
"< w c u e j h h h r p k p v j v a h h p u 1.<.u e ..8.6.6.6.6.6.B | 9.6.6.6.` y k j h p h p h p r i e a h k a w 0 0 r u e 8 2 # ",
", 7 Z c e i h h j a h h a h p v h k r u C 7.' e y R 5.6.6.6.6.8.{ i 2.9.7.6.R s j p p h a p j h p h j p h a h r e e r u r 6 3 + ",
"G u i h h p i p k j r h k j r h h j j e ] 8.C h ] >.6.8.6.6.6.7...y k } <.} y h h j r h a h h p r j h e i i a h a w e r r w > + ",
"-.j r u h j u h h p h h j k p j j h h r R ] e R 8.4. .,.7.7.6.7.,.B } C j i h h u a j k r a j j p h j i p p h a a w 6 0 e w 5 + ",
"&.e e b j h x y p k r j h p h a h p p a u u e R 6.) 9 y ] 5.7.9.` ) 0.4.` e h p j h p k h h p j j p h j h h a p a e 6 2 4 0 2 + ",
"! e e x h h h i h j j p h j b h h j v h h h s R 5.) e p y C | { e }  .R u h p p p v h h h p k s h j j p a h j h a e w , , 4 2 + ",
"! w 8 j u h h h p j h j p u p h p u p a h h y R 8.) i v x i y u h v 9 h j h p h j j r h p h h j h k j j r p h j a a u 4 4 6 2 + ",
"! w 7 i h j h h h a h r h r h a v h r h j p e R 4.( e h a h h h h p b p p h h j j k a h h p j h h h r h h p a a u u u u n w 2 O ",
"@.7 7 e e j h h a h h p a p v h p j h p k b p h v a h a p p a p j r h p h r i a p p h j p a p p p p p j a h h r u u u u a n 2 + ",
"&.7 1 e j h h h p p h a h v j h r j h v k u u h i h r h h h j j h h j a j r j h h p u p h h a j h a j h p j m a a a e e 0 e 3 + ",
"@.7 4 h x h e h h j p h a p p v k a j p h u p p j j j p a p j u p p h r p h a j h p j j a p h r a p p h a M r a a a w 0 = 0 2 + ",
"Y w 4 r p h p h p h h h p p r j h a h a h p h r j u e p e k h h p a h a p h e h h a h a j e e r h p p a p j p a u r r e 7 = @ o ",
"@.4 < e h p u h a p k a h h h j h j k p j p a p p i j j j j p p h p h h u p a a p r i h j p a h h p r h h r p h r j v r q 7 : @ ",
"&.0 7 h j j h p h j j h v x v p v p h p h p a h p p h h r p e p r a i a p h a h e p r p p h a p i a j e p p v a w u j p i u 1 O ",
"K e u c i p v e p r p j p p k j j u h k a h h p e p a v h i h p j j h e a r h p h a u i i a h r p h j a p v p q 8 8 e p h e , O ",
"L w r u a j r j h j j j p u j h p u j j h a a h j h j j h a p p i h a i e b h p i h r a j h h p h a r r p j 0 7 1 7 w p r u 3 @ ",
"T u 0 M k j p h a p h p p h p a h h p h h i h p a p a r a h i i w p h p p k h p e a j j e j a i p h p h u h i 7 7 e b p e x 3 O ",
"n n e u b h i h h h r j k a a h j k h p p r h a h h e h k p e 7 7 e a h p a p r q e k h p r h p e h a p e q p p e h j a e u 3 O ",
"< w n e h b p h p p h h p e r p i p j j j j a h a i i a p e 7 7 7 e h a e h a i 7 w h h e p h h a h h i 8 7 7 e u e e h j y 3 @ ",
"K c y h x x h k r r u y 6 4 4 0 p e r b u p e p a a u u u r w w e i p r r e k h y w w r w e x b j j n r 4 < 3 w u j e 7 7 w 3 # ",
"#.c s h z e i p r h u 8 5 3 2 7 r a p b x j u p a a u m m N t w e p h v j h h s e < 0 w e j x i r r u e w 4 3 3 e j r 7 4 8 2 # ",
"E e w b h h p p u u u 3 3 6 7 u u j u u e e p p i r u m r e 0 0 7 0 a B p p p x q = 0 e r a c h a a r r e e w 4 r p r 7 < 3 : @ ",
"@.q 0 b j h j r j u e 7 w u e u j u w 4 7 7 e p p p j r t 4 3 3 7 0 a a p k p p 7 * 0 u a p p c a e 0 0 0 w r u j j j w 1 7 2 O ",
"o.0 3 e y u j j r 0 e r e r u r e 7 4 5 < 3 6 u a r e e 6 5 2 4 3 7 w e e h x j 1 * 9 u c h h e 0 0 < < < 7 e u u e r w 4 6 2 O ",
"o.0 3 4 8 y u u 4 & 0 S r r r 0 4 3 3 4 6 3 6 u e 0 7 6 5 5 5 6 3 4 4 3 8 y y 8 ; , y y u e u 6 4 4 4 3 3 8 t u y 8 w 8 3 6 2 # ",
"D 6 2 2 2 2 3 2 $ O ; 3 < 3 < , , > 2 2 2 2 2 3 3 , > > 2 > 2 2 5 5 2 > 2 2 : % O 2 6 3 2 2 3 > > > 2 , 2 2 3 3 3 2 , , : 2 ; # ",
"; O + + # # O O X X + O O O o + + O + O O + + . @ O . O + + + O O O O O O # #   X + o @ O o O + O + + O + @ # O + O @ O O # # X "
};
