/* XPM */
static char *_1011639198f4df0b5f86cf8de665200crwBZ7Af87d0XKf5[] = {
/* columns rows colors chars-per-pixel */
"50 50 55 1 ",
"  c green",
". c #05FF05",
"X c #28FF28",
"o c #26FF26",
"O c #20FF20",
"+ c #15FF15",
"@ c #0EFF0E",
"# c #02FF02",
"$ c #7BFF7B",
"% c white",
"& c #FDFFFD",
"* c #F3FFF3",
"= c #C7FFC7",
"- c #37FF37",
"; c #7EFF7E",
": c #D3FFD3",
"> c #0AFF0A",
", c #E7FFE7",
"< c #0FFF0F",
"1 c #CEFFCE",
"2 c #33FF33",
"3 c #57FF57",
"4 c #5DFF5D",
"5 c #65FF65",
"6 c #B4FFB4",
"7 c #FEFFFE",
"8 c #C9FFC9",
"9 c #1CFF1C",
"0 c #CAFFCA",
"q c #F1FFF1",
"w c #EFFFEF",
"e c #AFFFAF",
"r c #13FF13",
"t c #C6FFC6",
"y c #11FF11",
"u c #F8FFF8",
"i c #F5FFF5",
"p c #34FF34",
"a c #36FF36",
"s c #42FF42",
"d c #52FF52",
"f c #69FF69",
"g c #A4FFA4",
"h c #BAFFBA",
"j c #3CFF3C",
"k c #88FF88",
"l c #B3FFB3",
"z c #B1FFB1",
"x c #F2FFF2",
"c c #9FFF9F",
"v c #50FF50",
"b c #47FF47",
"n c #30FF30",
"m c #74FF74",
"M c #FBFFFB",
/* pixels */
"                                                  ",
"                                                  ",
"                                                  ",
"                                                  ",
"                                                  ",
"                                                  ",
"                                                  ",
"                                                  ",
"                                                  ",
"             .XXXXXXXXXoO+@#                      ",
"             $%%%%%%%%%%%%%%&*=-                  ",
"             ;%%%%%%%%%%%%%%%%%%:>                ",
"             ;%%%%%%%%%%%%%%%%%%%,<               ",
"             ;%%%%%%%%%%%%%%%%%%%%1               ",
"             ;%%%%%%%%%%%%%%%%%%%%%2              ",
"             ;%%%%%%33345;67%%%%%%%8              ",
"             ;%%%%%7       90%%%%%%q              ",
"             ;%%%%%7        #w%%%%%&              ",
"             ;%%%%%7         e%%%%%%r             ",
"             ;%%%%%7         t%%%%%%y             ",
"             ;%%%%%7         u%%%%%7              ",
"             ;%%%%%7       >1%%%%%%i              ",
"             ;%%%%%%ppasdfg*%%%%%%%h              ",
"             ;%%%%%%%%%%%%%%%%%%%%%j              ",
"             ;%%%%%%%%%%%%%%%%%%%%k               ",
"             ;%%%%%%%%%%%%%%%%%%%l                ",
"             ;%%%%%%%%%%%%%%%%%7z                 ",
"             ;%%%%%%%%%%%%%%7xcy                  ",
"             ;%%%%%%dddvbjn+                      ",
"             ;%%%%%7                              ",
"             ;%%%%%7                              ",
"             ;%%%%%7                              ",
"             ;%%%%%7                              ",
"             ;%%%%%7                              ",
"             ;%%%%%7                              ",
"             ;%%%%%7                              ",
"             ;%%%%%7                              ",
"             ;%%%%%7                              ",
"             m%%%%%M                              ",
"                                                  ",
"                                                  ",
"                                                  ",
"                                                  ",
"                                                  ",
"                                                  ",
"                                                  ",
"                                                  ",
"                                                  ",
"                                                  ",
"                                                  "
};
