/* XPM */
static char *_1696810ca704d0fcdba2fafa4e25842FeN4gtbTND8wa3f7[] = {
/* columns rows colors chars-per-pixel */
"50 50 4 1 ",
"  c white",
". c #FEFEFE",
"X c #010101",
"o c black",
/* pixels */
"                                                 .",
" XXXXXXXXXXXXXXXXXXXXXXXXXXXXXXXXXXXXXXXXXXXXXXXX.",
" oooooooooooooooooooooooooooooooooooooooooooooooX.",
" oooooooooooooooooooooooooooooooooooooooooooooooX.",
" oooooooooooooooooooooooooooooooooooooooooooooooX.",
" oooooooooooooooooooooooooooooooooooooooooooooooX.",
" oooooooooooooooooooooooooooooooooooooooooooooooX.",
" oooooooooooooooooooooooooooooooooooooooooooooooX.",
" oooooooooooooooooooooooooooooooooooooooooooooooX.",
" oooooooooooooooooooooooooooooooooooooooooooooooX.",
" oooooooooooooooooooooooooooooooooooooooooooooooX.",
" oooooooooooooooooooooooooooooooooooooooooooooooX.",
" oooooooooooooooooooooooooooooooooooooooooooooooX.",
" oooooooooooooooooooooooooooooooooooooooooooooooX.",
" oooooooooooooooooooooooooooooooooooooooooooooooX.",
" oooooooooooooooooooooooooooooooooooooooooooooooX.",
" oooooooooooooooooooooooooooooooooooooooooooooooX.",
" oooooooooooooooooooooooooooooooooooooooooooooooX.",
" oooooooooooooooooooooooooooooooooooooooooooooooX.",
" oooooooooooooooooooooooooooooooooooooooooooooooX.",
" oooooooooooooooooooooooooooooooooooooooooooooooX.",
" oooooooooooooooooooooooooooooooooooooooooooooooX.",
" oooooooooooooooooooooooooooooooooooooooooooooooX.",
" oooooooooooooooooooooooooooooooooooooooooooooooX.",
" oooooooooooooooooooooooooooooooooooooooooooooooX.",
" oooooooooooooooooooooooooooooooooooooooooooooooX.",
" oooooooooooooooooooooooooooooooooooooooooooooooX.",
" oooooooooooooooooooooooooooooooooooooooooooooooX.",
" oooooooooooooooooooooooooooooooooooooooooooooooX.",
" oooooooooooooooooooooooooooooooooooooooooooooooX.",
" oooooooooooooooooooooooooooooooooooooooooooooooX.",
" oooooooooooooooooooooooooooooooooooooooooooooooX.",
" oooooooooooooooooooooooooooooooooooooooooooooooX.",
" oooooooooooooooooooooooooooooooooooooooooooooooX.",
" oooooooooooooooooooooooooooooooooooooooooooooooX.",
" oooooooooooooooooooooooooooooooooooooooooooooooX.",
" oooooooooooooooooooooooooooooooooooooooooooooooX.",
" oooooooooooooooooooooooooooooooooooooooooooooooX.",
" oooooooooooooooooooooooooooooooooooooooooooooooX.",
" oooooooooooooooooooooooooooooooooooooooooooooooX.",
" oooooooooooooooooooooooooooooooooooooooooooooooX.",
" oooooooooooooooooooooooooooooooooooooooooooooooX.",
" oooooooooooooooooooooooooooooooooooooooooooooooX.",
" oooooooooooooooooooooooooooooooooooooooooooooooX.",
" oooooooooooooooooooooooooooooooooooooooooooooooX.",
" oooooooooooooooooooooooooooooooooooooooooooooooX.",
" oooooooooooooooooooooooooooooooooooooooooooooooX.",
" oooooooooooooooooooooooooooooooooooooooooooooooX.",
" oooooooooooooooooooooooooooooooooooooooooooooooX.",
"                                                 ."
};
